# xmcd
#
# Track frame offsets: 
#        150
#        22963
#        47785
#        76078
#        99214
#        117188
#        148251
#        165981
#        185589
#
# Disc length: 2675 seconds
#
# Revision: 0
# Processed by: cddbd v1.5.2PL0 Copyright (c) Steve Scherf et al.
# Submitted via: ExactAudioCopy v1.0b3
#
DISCID=670a7109
DTITLE=Beginning Of The End  - Beginning Of The End 
DYEAR=1976
DGENRE=Soul
TTITLE0=Super Woman 
TTITLE1=Trip To Nowhere
TTITLE2=Jamaica 
TTITLE3=I've Got The News 
TTITLE4=Falling Apart At The Seams
TTITLE5=That's What I Get 
TTITLE6=Bluestrain 
TTITLE7=Jump In The Water 
TTITLE8=Bahamian Boogie 
EXTD=
EXTT0=
EXTT1=
EXTT2=
EXTT3=
EXTT4=
EXTT5=
EXTT6=
EXTT7=
EXTT8=
PLAYORDER=
